<mxfile host="app.diagrams.net" modified="2023-10-17T15:32:04.065Z" agent="Mozilla/5.0 (X11; Linux x86_64) AppleWebKit/537.36 (KHTML, like Gecko) Chrome/117.0.0.0 Safari/537.36" etag="NdnFOZHmre56E5cJQFdY" version="22.0.4" type="github">
  <diagram name="Page-1" id="GnxkV7bNmk6tipJM2uC0">
    <mxGraphModel dx="274" dy="450" grid="1" gridSize="10" guides="1" tooltips="1" connect="1" arrows="1" fold="1" page="1" pageScale="1" pageWidth="850" pageHeight="1100" math="0" shadow="0">
      <root>
        <mxCell id="0" />
        <mxCell id="1" parent="0" />
        <mxCell id="cJ8iGMwO-AmT_AEDeLSv-3" value="" style="rounded=1;whiteSpace=wrap;html=1;" vertex="1" parent="1">
          <mxGeometry x="190" y="107.5" width="380" height="292.5" as="geometry" />
        </mxCell>
        <mxCell id="cJ8iGMwO-AmT_AEDeLSv-5" value="" style="rounded=1;whiteSpace=wrap;html=1;" vertex="1" parent="1">
          <mxGeometry x="420" y="115" width="120" height="95" as="geometry" />
        </mxCell>
        <mxCell id="cJ8iGMwO-AmT_AEDeLSv-11" style="edgeStyle=orthogonalEdgeStyle;rounded=0;orthogonalLoop=1;jettySize=auto;html=1;exitX=1;exitY=0.5;exitDx=0;exitDy=0;" edge="1" parent="1" source="cJ8iGMwO-AmT_AEDeLSv-1" target="cJ8iGMwO-AmT_AEDeLSv-9">
          <mxGeometry relative="1" as="geometry">
            <Array as="points" />
          </mxGeometry>
        </mxCell>
        <mxCell id="cJ8iGMwO-AmT_AEDeLSv-22" value="&lt;span style=&quot;background-color: rgb(255, 100, 0);&quot;&gt;create server-side request&lt;br&gt;(recomended if it not 3rd party app)&lt;/span&gt;" style="edgeLabel;html=1;align=center;verticalAlign=middle;resizable=0;points=[];" vertex="1" connectable="0" parent="cJ8iGMwO-AmT_AEDeLSv-11">
          <mxGeometry x="-0.3745" relative="1" as="geometry">
            <mxPoint x="44" y="-12" as="offset" />
          </mxGeometry>
        </mxCell>
        <mxCell id="cJ8iGMwO-AmT_AEDeLSv-1" value="client" style="rounded=1;whiteSpace=wrap;html=1;" vertex="1" parent="1">
          <mxGeometry x="100" y="107.5" width="60" height="60" as="geometry" />
        </mxCell>
        <mxCell id="cJ8iGMwO-AmT_AEDeLSv-16" style="edgeStyle=orthogonalEdgeStyle;rounded=0;orthogonalLoop=1;jettySize=auto;html=1;entryX=0;entryY=0.5;entryDx=0;entryDy=0;exitX=0.5;exitY=1;exitDx=0;exitDy=0;" edge="1" parent="1" source="cJ8iGMwO-AmT_AEDeLSv-4" target="cJ8iGMwO-AmT_AEDeLSv-17">
          <mxGeometry relative="1" as="geometry">
            <mxPoint x="265" y="443.6363636363636" as="targetPoint" />
          </mxGeometry>
        </mxCell>
        <mxCell id="cJ8iGMwO-AmT_AEDeLSv-20" value="&lt;span style=&quot;background-color: rgb(255, 100, 0);&quot;&gt;render server-side response&lt;/span&gt;" style="edgeLabel;html=1;align=center;verticalAlign=middle;resizable=0;points=[];" vertex="1" connectable="0" parent="cJ8iGMwO-AmT_AEDeLSv-16">
          <mxGeometry x="-0.5896" y="-2" relative="1" as="geometry">
            <mxPoint as="offset" />
          </mxGeometry>
        </mxCell>
        <mxCell id="cJ8iGMwO-AmT_AEDeLSv-4" value="" style="rounded=1;whiteSpace=wrap;html=1;" vertex="1" parent="1">
          <mxGeometry x="210" y="210" width="110" height="105" as="geometry" />
        </mxCell>
        <mxCell id="cJ8iGMwO-AmT_AEDeLSv-6" value="+server.ts" style="rounded=1;whiteSpace=wrap;html=1;" vertex="1" parent="1">
          <mxGeometry x="220" y="225" width="90" height="25" as="geometry" />
        </mxCell>
        <mxCell id="cJ8iGMwO-AmT_AEDeLSv-7" value="+layout.server.ts" style="rounded=1;whiteSpace=wrap;html=1;" vertex="1" parent="1">
          <mxGeometry x="220" y="250" width="90" height="25" as="geometry" />
        </mxCell>
        <mxCell id="cJ8iGMwO-AmT_AEDeLSv-8" value="+page.server.ts" style="rounded=1;whiteSpace=wrap;html=1;" vertex="1" parent="1">
          <mxGeometry x="220" y="275" width="90" height="25" as="geometry" />
        </mxCell>
        <mxCell id="cJ8iGMwO-AmT_AEDeLSv-12" style="edgeStyle=orthogonalEdgeStyle;rounded=0;orthogonalLoop=1;jettySize=auto;html=1;exitX=1;exitY=0.5;exitDx=0;exitDy=0;entryX=1;entryY=0.5;entryDx=0;entryDy=0;" edge="1" parent="1" source="cJ8iGMwO-AmT_AEDeLSv-9" target="cJ8iGMwO-AmT_AEDeLSv-10">
          <mxGeometry relative="1" as="geometry">
            <mxPoint x="545" y="100" as="targetPoint" />
            <Array as="points">
              <mxPoint x="545" y="137" />
              <mxPoint x="545" y="163" />
            </Array>
          </mxGeometry>
        </mxCell>
        <mxCell id="cJ8iGMwO-AmT_AEDeLSv-9" value="&lt;p style=&quot;line-height: 40%;&quot;&gt;&lt;font style=&quot;font-size: 6px;&quot;&gt;as request hits server &amp;amp; before response is generated&lt;/font&gt;&lt;/p&gt;" style="rounded=1;whiteSpace=wrap;html=1;" vertex="1" parent="1">
          <mxGeometry x="435" y="125" width="90" height="25" as="geometry" />
        </mxCell>
        <mxCell id="cJ8iGMwO-AmT_AEDeLSv-15" style="edgeStyle=orthogonalEdgeStyle;rounded=0;orthogonalLoop=1;jettySize=auto;html=1;exitX=0;exitY=0.5;exitDx=0;exitDy=0;entryX=0.5;entryY=0;entryDx=0;entryDy=0;" edge="1" parent="1" source="cJ8iGMwO-AmT_AEDeLSv-10" target="cJ8iGMwO-AmT_AEDeLSv-4">
          <mxGeometry relative="1" as="geometry" />
        </mxCell>
        <mxCell id="cJ8iGMwO-AmT_AEDeLSv-18" value="&lt;span style=&quot;background-color: rgb(255, 100, 0);&quot;&gt;where&#39;s the updated request events&lt;/span&gt;" style="edgeLabel;html=1;align=center;verticalAlign=middle;resizable=0;points=[];fillColor=#FF8000;strokeColor=#FF8000;" vertex="1" connectable="0" parent="cJ8iGMwO-AmT_AEDeLSv-15">
          <mxGeometry x="0.1132" y="1" relative="1" as="geometry">
            <mxPoint x="6" y="-1" as="offset" />
          </mxGeometry>
        </mxCell>
        <mxCell id="cJ8iGMwO-AmT_AEDeLSv-10" value="&lt;p style=&quot;line-height: 40%;&quot;&gt;&lt;font style=&quot;font-size: 6px;&quot;&gt;render route &amp;amp; generate response await resolve(event)&lt;/font&gt;&lt;/p&gt;" style="rounded=1;whiteSpace=wrap;html=1;" vertex="1" parent="1">
          <mxGeometry x="435" y="150" width="90" height="25" as="geometry" />
        </mxCell>
        <mxCell id="cJ8iGMwO-AmT_AEDeLSv-19" style="edgeStyle=orthogonalEdgeStyle;rounded=0;orthogonalLoop=1;jettySize=auto;html=1;exitX=1;exitY=0.5;exitDx=0;exitDy=0;entryX=0.5;entryY=1;entryDx=0;entryDy=0;" edge="1" parent="1" source="cJ8iGMwO-AmT_AEDeLSv-17" target="cJ8iGMwO-AmT_AEDeLSv-1">
          <mxGeometry relative="1" as="geometry">
            <Array as="points">
              <mxPoint x="545" y="187" />
              <mxPoint x="545" y="380" />
              <mxPoint x="130" y="380" />
            </Array>
          </mxGeometry>
        </mxCell>
        <mxCell id="cJ8iGMwO-AmT_AEDeLSv-21" value="&lt;span style=&quot;background-color: rgb(255, 100, 0);&quot;&gt;render client-side response&lt;/span&gt;" style="edgeLabel;html=1;align=center;verticalAlign=middle;resizable=0;points=[];" vertex="1" connectable="0" parent="cJ8iGMwO-AmT_AEDeLSv-19">
          <mxGeometry x="0.1512" y="-2" relative="1" as="geometry">
            <mxPoint as="offset" />
          </mxGeometry>
        </mxCell>
        <mxCell id="cJ8iGMwO-AmT_AEDeLSv-17" value="&lt;p style=&quot;line-height: 40%;&quot;&gt;&lt;font style=&quot;font-size: 6px;&quot;&gt;generated response&lt;/font&gt;&lt;/p&gt;" style="rounded=1;whiteSpace=wrap;html=1;" vertex="1" parent="1">
          <mxGeometry x="435" y="175" width="90" height="25" as="geometry" />
        </mxCell>
      </root>
    </mxGraphModel>
  </diagram>
</mxfile>
